<svg width="114" height="61" viewBox="0 0 114 61" fill="none" xmlns="http://www.w3.org/2000/svg">
<circle cx="30.3269" cy="30.3269" r="30.3269" fill="#F6D7D7"/>
<circle cx="46.7692" cy="29.9615" r="24.8462" fill="#EEF6D7"/>
<ellipse cx="60.6539" cy="30.3269" rx="18.2692" ry="18.6346" fill="#D7F6F4"/>
<path d="M54.4431 38.8362C54.9364 38.8362 55.3831 38.9528 55.7831 39.1862C56.1898 39.4128 56.5098 39.7395 56.7431 40.1662C56.9831 40.5862 57.1031 41.0762 57.1031 41.6362C57.1031 42.1962 56.9831 42.6895 56.7431 43.1162C56.5098 43.5362 56.1898 43.8628 55.7831 44.0962C55.3831 44.3228 54.9364 44.4362 54.4431 44.4362C53.8098 44.4362 53.3064 44.2462 52.9331 43.8662V46.2862H51.0331V38.9262H52.8431V39.4662C53.1964 39.0462 53.7298 38.8362 54.4431 38.8362ZM54.0431 42.9262C54.3764 42.9262 54.6498 42.8128 54.8631 42.5862C55.0764 42.3528 55.1831 42.0362 55.1831 41.6362C55.1831 41.2362 55.0764 40.9228 54.8631 40.6962C54.6498 40.4628 54.3764 40.3462 54.0431 40.3462C53.7098 40.3462 53.4364 40.4628 53.2231 40.6962C53.0098 40.9228 52.9031 41.2362 52.9031 41.6362C52.9031 42.0362 53.0098 42.3528 53.2231 42.5862C53.4364 42.8128 53.7098 42.9262 54.0431 42.9262ZM60.7062 44.4362C60.1262 44.4362 59.6029 44.3162 59.1362 44.0762C58.6695 43.8362 58.3029 43.5028 58.0362 43.0762C57.7762 42.6495 57.6462 42.1662 57.6462 41.6262C57.6462 41.0928 57.7762 40.6128 58.0362 40.1862C58.3029 39.7595 58.6662 39.4295 59.1262 39.1962C59.5929 38.9562 60.1195 38.8362 60.7062 38.8362C61.2929 38.8362 61.8195 38.9562 62.2862 39.1962C62.7529 39.4295 63.1162 39.7595 63.3762 40.1862C63.6362 40.6062 63.7662 41.0862 63.7662 41.6262C63.7662 42.1662 63.6362 42.6495 63.3762 43.0762C63.1162 43.5028 62.7529 43.8362 62.2862 44.0762C61.8195 44.3162 61.2929 44.4362 60.7062 44.4362ZM60.7062 42.9262C61.0395 42.9262 61.3129 42.8128 61.5262 42.5862C61.7395 42.3528 61.8462 42.0328 61.8462 41.6262C61.8462 41.2262 61.7395 40.9128 61.5262 40.6862C61.3129 40.4595 61.0395 40.3462 60.7062 40.3462C60.3729 40.3462 60.0995 40.4595 59.8862 40.6862C59.6729 40.9128 59.5662 41.2262 59.5662 41.6262C59.5662 42.0328 59.6729 42.3528 59.8862 42.5862C60.0995 42.8128 60.3729 42.9262 60.7062 42.9262ZM73.4799 38.9262L71.5499 44.3462H69.7099L68.6899 41.3962L67.6299 44.3462H65.7899L63.8599 38.9262H65.6599L66.7699 42.2062L67.9199 38.9262H69.5399L70.6599 42.2362L71.8099 38.9262H73.4799ZM79.4539 41.6462C79.4539 41.6595 79.4439 41.8162 79.4239 42.1162H75.4839C75.5639 42.3962 75.7173 42.6128 75.9439 42.7662C76.1773 42.9128 76.4673 42.9862 76.8139 42.9862C77.0739 42.9862 77.2973 42.9495 77.4839 42.8762C77.6773 42.8028 77.8706 42.6828 78.0639 42.5162L79.0639 43.5562C78.5373 44.1428 77.7673 44.4362 76.7539 44.4362C76.1206 44.4362 75.5639 44.3162 75.0839 44.0762C74.6039 43.8362 74.2306 43.5028 73.9639 43.0762C73.7039 42.6495 73.5739 42.1662 73.5739 41.6262C73.5739 41.0928 73.7006 40.6162 73.9539 40.1962C74.2139 39.7695 74.5706 39.4362 75.0239 39.1962C75.4773 38.9562 75.9873 38.8362 76.5539 38.8362C77.0939 38.8362 77.5839 38.9495 78.0239 39.1762C78.4639 39.3962 78.8106 39.7195 79.0639 40.1462C79.3239 40.5662 79.4539 41.0662 79.4539 41.6462ZM76.5639 40.1862C76.2706 40.1862 76.0239 40.2695 75.8239 40.4362C75.6306 40.6028 75.5073 40.8295 75.4539 41.1162H77.6739C77.6206 40.8295 77.4939 40.6028 77.2939 40.4362C77.1006 40.2695 76.8573 40.1862 76.5639 40.1862ZM82.14 39.5762C82.3333 39.3295 82.5833 39.1462 82.89 39.0262C83.2033 38.8995 83.56 38.8362 83.96 38.8362V40.5462C83.7866 40.5262 83.6433 40.5162 83.53 40.5162C83.1233 40.5162 82.8033 40.6262 82.57 40.8462C82.3433 41.0662 82.23 41.4028 82.23 41.8562V44.3462H80.33V38.9262H82.14V39.5762ZM90.2352 41.6462C90.2352 41.6595 90.2252 41.8162 90.2052 42.1162H86.2652C86.3452 42.3962 86.4985 42.6128 86.7252 42.7662C86.9585 42.9128 87.2485 42.9862 87.5952 42.9862C87.8552 42.9862 88.0785 42.9495 88.2652 42.8762C88.4585 42.8028 88.6519 42.6828 88.8452 42.5162L89.8452 43.5562C89.3185 44.1428 88.5485 44.4362 87.5352 44.4362C86.9019 44.4362 86.3452 44.3162 85.8652 44.0762C85.3852 43.8362 85.0119 43.5028 84.7452 43.0762C84.4852 42.6495 84.3552 42.1662 84.3552 41.6262C84.3552 41.0928 84.4819 40.6162 84.7352 40.1962C84.9952 39.7695 85.3519 39.4362 85.8052 39.1962C86.2585 38.9562 86.7685 38.8362 87.3352 38.8362C87.8752 38.8362 88.3652 38.9495 88.8052 39.1762C89.2452 39.3962 89.5919 39.7195 89.8452 40.1462C90.1052 40.5662 90.2352 41.0662 90.2352 41.6462ZM87.3452 40.1862C87.0519 40.1862 86.8052 40.2695 86.6052 40.4362C86.4119 40.6028 86.2885 40.8295 86.2352 41.1162H88.4552C88.4019 40.8295 88.2752 40.6028 88.0752 40.4362C87.8819 40.2695 87.6385 40.1862 87.3452 40.1862ZM96.8712 36.9262V44.3462H95.0612V43.8062C94.7079 44.2262 94.1779 44.4362 93.4712 44.4362C92.9779 44.4362 92.5279 44.3228 92.1212 44.0962C91.7145 43.8628 91.3912 43.5328 91.1512 43.1062C90.9179 42.6795 90.8012 42.1862 90.8012 41.6262C90.8012 41.0662 90.9179 40.5762 91.1512 40.1562C91.3912 39.7295 91.7145 39.4028 92.1212 39.1762C92.5279 38.9495 92.9779 38.8362 93.4712 38.8362C94.1179 38.8362 94.6179 39.0228 94.9712 39.3962V36.9262H96.8712ZM93.8712 42.9262C94.1979 42.9262 94.4679 42.8128 94.6812 42.5862C94.8945 42.3528 95.0012 42.0328 95.0012 41.6262C95.0012 41.2262 94.8945 40.9128 94.6812 40.6862C94.4745 40.4595 94.2045 40.3462 93.8712 40.3462C93.5379 40.3462 93.2645 40.4595 93.0512 40.6862C92.8379 40.9128 92.7312 41.2262 92.7312 41.6262C92.7312 42.0328 92.8379 42.3528 93.0512 42.5862C93.2645 42.8128 93.5379 42.9262 93.8712 42.9262ZM104.414 38.8362C104.907 38.8362 105.354 38.9495 105.754 39.1762C106.16 39.4028 106.48 39.7295 106.714 40.1562C106.954 40.5762 107.074 41.0662 107.074 41.6262C107.074 42.1862 106.954 42.6795 106.714 43.1062C106.48 43.5328 106.16 43.8628 105.754 44.0962C105.354 44.3228 104.907 44.4362 104.414 44.4362C103.7 44.4362 103.167 44.2262 102.814 43.8062V44.3462H101.004V36.9262H102.904V39.3962C103.27 39.0228 103.774 38.8362 104.414 38.8362ZM104.014 42.9262C104.347 42.9262 104.62 42.8128 104.834 42.5862C105.047 42.3528 105.154 42.0328 105.154 41.6262C105.154 41.2262 105.047 40.9128 104.834 40.6862C104.62 40.4595 104.347 40.3462 104.014 40.3462C103.68 40.3462 103.407 40.4595 103.194 40.6862C102.98 40.9128 102.874 41.2262 102.874 41.6262C102.874 42.0328 102.98 42.3528 103.194 42.5862C103.407 42.8128 103.68 42.9262 104.014 42.9262ZM113.52 38.9262L111.18 44.5662C110.907 45.2328 110.574 45.6995 110.18 45.9662C109.787 46.2395 109.307 46.3762 108.74 46.3762C108.454 46.3762 108.164 46.3295 107.87 46.2362C107.584 46.1495 107.35 46.0328 107.17 45.8862L107.83 44.5562C107.937 44.6562 108.064 44.7328 108.21 44.7862C108.364 44.8462 108.517 44.8762 108.67 44.8762C108.85 44.8762 108.997 44.8395 109.11 44.7662C109.23 44.6928 109.33 44.5762 109.41 44.4162L107.09 38.9262H109.04L110.37 42.2362L111.71 38.9262H113.52ZM54.9351 57.1142H53.6391V59.3462H51.2631V50.9462H55.1031C55.8631 50.9462 56.5231 51.0742 57.0831 51.3302C57.6431 51.5782 58.0751 51.9382 58.3791 52.4102C58.6831 52.8742 58.8351 53.4222 58.8351 54.0542C58.8351 54.6622 58.6911 55.1942 58.4031 55.6502C58.1231 56.0982 57.7191 56.4502 57.1911 56.7062L59.0031 59.3462H56.4591L54.9351 57.1142ZM56.4351 54.0542C56.4351 53.6622 56.3111 53.3582 56.0631 53.1422C55.8151 52.9262 55.4471 52.8182 54.9591 52.8182H53.6391V55.2782H54.9591C55.4471 55.2782 55.8151 55.1742 56.0631 54.9662C56.3111 54.7502 56.4351 54.4462 56.4351 54.0542ZM65.7739 57.7142H62.2219L61.5619 59.3462H59.1379L62.8459 50.9462H65.1859L68.9059 59.3462H66.4339L65.7739 57.7142ZM65.0779 55.9622L63.9979 53.2742L62.9179 55.9622H65.0779ZM73.4195 50.9462C74.1795 50.9462 74.8395 51.0742 75.3995 51.3302C75.9595 51.5782 76.3915 51.9382 76.6955 52.4102C76.9995 52.8742 77.1515 53.4222 77.1515 54.0542C77.1515 54.6862 76.9995 55.2342 76.6955 55.6982C76.3915 56.1622 75.9595 56.5222 75.3995 56.7782C74.8395 57.0262 74.1795 57.1502 73.4195 57.1502H71.9555V59.3462H69.5795V50.9462H73.4195ZM73.2755 55.2782C73.7635 55.2782 74.1315 55.1742 74.3795 54.9662C74.6275 54.7502 74.7515 54.4462 74.7515 54.0542C74.7515 53.6622 74.6275 53.3582 74.3795 53.1422C74.1315 52.9262 73.7635 52.8182 73.2755 52.8182H71.9555V55.2782H73.2755ZM78.31 50.9462H80.686V59.3462H78.31V50.9462ZM82.3764 50.9462H86.3484C87.2684 50.9462 88.0844 51.1182 88.7964 51.4622C89.5084 51.8062 90.0604 52.2942 90.4524 52.9262C90.8444 53.5582 91.0404 54.2982 91.0404 55.1462C91.0404 55.9942 90.8444 56.7342 90.4524 57.3662C90.0604 57.9982 89.5084 58.4862 88.7964 58.8302C88.0844 59.1742 87.2684 59.3462 86.3484 59.3462H82.3764V50.9462ZM86.2524 57.4502C86.9724 57.4502 87.5484 57.2462 87.9804 56.8382C88.4204 56.4302 88.6404 55.8662 88.6404 55.1462C88.6404 54.4262 88.4204 53.8622 87.9804 53.4542C87.5484 53.0462 86.9724 52.8422 86.2524 52.8422H84.7524V57.4502H86.2524Z" fill="white"/>
</svg>
